# xmcd CD database file
#
# Track frame offsets:
#	150
#	17266
#	33313
#	46897
#	61520
#	75394
#	91360
#	107320
#	129943
#	148652
#	163455
#	186332
#	203733
#	219330
#	235381
#	252680
#	271546
#	291780
#	309474
#
# Disc length: 4631 seconds
#
# Revision: 0
# Processed by: cddbd v1.5.1PL2 Copyright (c) Steve Scherf et al.
# Submitted via: CDex 1.51
#
DISCID=fb121513
DTITLE=Larry Adler - The glory of Gershwin
DYEAR=1994
DGENRE=Jazz
TTITLE0=P. Gabriel - Summertime
TTITLE1=C. De Bergh - Do what you do
TTITLE2=Sting - Nice work if you can get it
TTITLE3=L. Stanfield - They can take that away from me
TTITLE4=E. John - Someone to watch over me
TTITLE5=E. John - Love is here to stay
TTITLE6=C. Simon - I've got a crush of you
TTITLE7=E. Costello - But not for me
TTITLE8=Cher - Ain't necessary so
TTITLE9=K. Bush - The man I love
TTITLE10=J. Bon Jovi - How long has this been going on
TTITLE11=O. Adams - Embracely you
TTITLE12=W. White - Bidin' my time
TTITLE13=S. O' Connor - My man's gone noe
TTITLE14=R. Palmer - I got rhytm
TTITLE15=M. Leaf - Somebody loves me
TTITLE16=I. Van Randwick - I'll build a starways to paradise
TTITLE17=C. Pine - Summertime
TTITLE18=L. Adler - G. Martin - Rhapsody in blue
EXTD=YEAR: 1994
EXTT0=
EXTT1=
EXTT2=
EXTT3=
EXTT4=
EXTT5=
EXTT6=
EXTT7=
EXTT8=
EXTT9=
EXTT10=
EXTT11=
EXTT12=
EXTT13=
EXTT14=
EXTT15=
EXTT16=
EXTT17=
EXTT18=
PLAYORDER=
